<?xml version="1.0" encoding="UTF-8" standalone="no"?>
<!DOCTYPE svg PUBLIC "-//W3C//DTD SVG 1.1//EN"
 "http://www.w3.org/Graphics/SVG/1.1/DTD/svg11.dtd">
<!-- Generated by graphviz version 2.38.0 (20140413.2041)
 -->
<!-- Title: snakemake_dag Pages: 1 -->
<svg width="1646pt" height="188pt"
 viewBox="0.00 0.00 1646.00 188.00" xmlns="http://www.w3.org/2000/svg" xmlns:xlink="http://www.w3.org/1999/xlink">
<g id="graph0" class="graph" transform="scale(1 1) rotate(0) translate(4 184)">
<title>snakemake_dag</title>
<polygon fill="white" stroke="none" points="-4,4 -4,-184 1642,-184 1642,4 -4,4"/>
<!-- 0 -->
<g id="node1" class="node"><title>0</title>
<path fill="none" stroke="#d85656" stroke-width="2" d="M42,-180C42,-180 12,-180 12,-180 6,-180 0,-174 0,-168 0,-168 0,-156 0,-156 0,-150 6,-144 12,-144 12,-144 42,-144 42,-144 48,-144 54,-150 54,-156 54,-156 54,-168 54,-168 54,-174 48,-180 42,-180"/>
<text text-anchor="middle" x="27" y="-159.5" font-family="sans" font-size="10.00">chr16</text>
</g>
<!-- 19 -->
<g id="node20" class="node"><title>19</title>
<path fill="none" stroke="#9fd856" stroke-width="2" d="M834,-108C834,-108 804,-108 804,-108 798,-108 792,-102 792,-96 792,-96 792,-84 792,-84 792,-78 798,-72 804,-72 804,-72 834,-72 834,-72 840,-72 846,-78 846,-84 846,-84 846,-96 846,-96 846,-102 840,-108 834,-108"/>
<text text-anchor="middle" x="819" y="-87.5" font-family="sans" font-size="10.00">merge</text>
</g>
<!-- 0&#45;&gt;19 -->
<g id="edge2" class="edge"><title>0&#45;&gt;19</title>
<path fill="none" stroke="grey" stroke-width="2" d="M54.1215,-146.916C57.0632,-145.776 60.0576,-144.769 63,-144 201.195,-107.89 648.78,-94.9077 781.546,-91.7974"/>
<polygon fill="grey" stroke="grey" stroke-width="2" points="781.71,-95.2946 791.627,-91.5662 781.55,-88.2965 781.71,-95.2946"/>
</g>
<!-- 1 -->
<g id="node2" class="node"><title>1</title>
<path fill="none" stroke="#d8bc56" stroke-width="2" d="M114,-180C114,-180 84,-180 84,-180 78,-180 72,-174 72,-168 72,-168 72,-156 72,-156 72,-150 78,-144 84,-144 84,-144 114,-144 114,-144 120,-144 126,-150 126,-156 126,-156 126,-168 126,-168 126,-174 120,-180 114,-180"/>
<text text-anchor="middle" x="99" y="-159.5" font-family="sans" font-size="10.00">chr9</text>
</g>
<!-- 1&#45;&gt;19 -->
<g id="edge12" class="edge"><title>1&#45;&gt;19</title>
<path fill="none" stroke="grey" stroke-width="2" d="M126.127,-146.938C129.068,-145.793 132.06,-144.78 135,-144 258.751,-111.178 657.034,-96.1054 781.482,-92.118"/>
<polygon fill="grey" stroke="grey" stroke-width="2" points="781.767,-95.6108 791.652,-91.7974 781.546,-88.6143 781.767,-95.6108"/>
</g>
<!-- 2 -->
<g id="node3" class="node"><title>2</title>
<path fill="none" stroke="#d86e56" stroke-width="2" d="M186,-180C186,-180 156,-180 156,-180 150,-180 144,-174 144,-168 144,-168 144,-156 144,-156 144,-150 150,-144 156,-144 156,-144 186,-144 186,-144 192,-144 198,-150 198,-156 198,-156 198,-168 198,-168 198,-174 192,-180 186,-180"/>
<text text-anchor="middle" x="171" y="-159.5" font-family="sans" font-size="10.00">chr18</text>
</g>
<!-- 2&#45;&gt;19 -->
<g id="edge4" class="edge"><title>2&#45;&gt;19</title>
<path fill="none" stroke="grey" stroke-width="2" d="M198.135,-146.965C201.074,-145.816 204.064,-144.793 207,-144 316.452,-114.44 666.233,-97.4229 781.653,-92.5038"/>
<polygon fill="grey" stroke="grey" stroke-width="2" points="781.919,-95.9958 791.763,-92.0785 781.625,-89.002 781.919,-95.9958"/>
</g>
<!-- 3 -->
<g id="node4" class="node"><title>3</title>
<path fill="none" stroke="#d87d56" stroke-width="2" d="M258,-180C258,-180 228,-180 228,-180 222,-180 216,-174 216,-168 216,-168 216,-156 216,-156 216,-150 222,-144 228,-144 228,-144 258,-144 258,-144 264,-144 270,-150 270,-156 270,-156 270,-168 270,-168 270,-174 264,-180 258,-180"/>
<text text-anchor="middle" x="243" y="-159.5" font-family="sans" font-size="10.00">chr17</text>
</g>
<!-- 3&#45;&gt;19 -->
<g id="edge5" class="edge"><title>3&#45;&gt;19</title>
<path fill="none" stroke="grey" stroke-width="2" d="M270.144,-147C273.081,-145.843 276.069,-144.81 279,-144 462.45,-93.3261 692.678,-89.6257 781.587,-90.3172"/>
<polygon fill="grey" stroke="grey" stroke-width="2" points="781.681,-93.8183 791.717,-90.4205 781.753,-86.8187 781.681,-93.8183"/>
</g>
<!-- 4 -->
<g id="node5" class="node"><title>4</title>
<path fill="none" stroke="#56d88a" stroke-width="2" d="M330,-180C330,-180 300,-180 300,-180 294,-180 288,-174 288,-168 288,-168 288,-156 288,-156 288,-150 294,-144 300,-144 300,-144 330,-144 330,-144 336,-144 342,-150 342,-156 342,-156 342,-168 342,-168 342,-174 336,-180 330,-180"/>
<text text-anchor="middle" x="315" y="-159.5" font-family="sans" font-size="10.00">chr5</text>
</g>
<!-- 4&#45;&gt;19 -->
<g id="edge6" class="edge"><title>4&#45;&gt;19</title>
<path fill="none" stroke="grey" stroke-width="2" d="M342.157,-147.045C345.092,-145.88 348.075,-144.832 351,-144 506.628,-99.7581 701.263,-92.2446 781.636,-91.1136"/>
<polygon fill="grey" stroke="grey" stroke-width="2" points="781.798,-94.6121 791.757,-90.9971 781.717,-87.6126 781.798,-94.6121"/>
</g>
<!-- 5 -->
<g id="node6" class="node"><title>5</title>
<path fill="none" stroke="#56d8a2" stroke-width="2" d="M402,-180C402,-180 372,-180 372,-180 366,-180 360,-174 360,-168 360,-168 360,-156 360,-156 360,-150 366,-144 372,-144 372,-144 402,-144 402,-144 408,-144 414,-150 414,-156 414,-156 414,-168 414,-168 414,-174 408,-180 402,-180"/>
<text text-anchor="middle" x="387" y="-159.5" font-family="sans" font-size="10.00">chr2</text>
</g>
<!-- 5&#45;&gt;19 -->
<g id="edge7" class="edge"><title>5&#45;&gt;19</title>
<path fill="none" stroke="grey" stroke-width="2" d="M414.174,-147.106C417.106,-145.929 420.083,-144.861 423,-144 551.133,-106.166 710.626,-95.261 781.755,-92.1803"/>
<polygon fill="grey" stroke="grey" stroke-width="2" points="782.144,-95.6675 791.994,-91.7651 781.86,-88.6732 782.144,-95.6675"/>
</g>
<!-- 6 -->
<g id="node7" class="node"><title>6</title>
<path fill="none" stroke="#56d8b1" stroke-width="2" d="M474,-180C474,-180 444,-180 444,-180 438,-180 432,-174 432,-168 432,-168 432,-156 432,-156 432,-150 438,-144 444,-144 444,-144 474,-144 474,-144 480,-144 486,-150 486,-156 486,-156 486,-168 486,-168 486,-174 480,-180 474,-180"/>
<text text-anchor="middle" x="459" y="-159.5" font-family="sans" font-size="10.00">chr12</text>
</g>
<!-- 6&#45;&gt;19 -->
<g id="edge8" class="edge"><title>6&#45;&gt;19</title>
<path fill="none" stroke="grey" stroke-width="2" d="M486.201,-147.193C489.127,-145.999 492.096,-144.904 495,-144 595.886,-112.609 720.549,-98.8892 781.659,-93.7084"/>
<polygon fill="grey" stroke="grey" stroke-width="2" points="782.278,-97.1695 791.96,-92.8656 781.708,-90.1928 782.278,-97.1695"/>
</g>
<!-- 7 -->
<g id="node8" class="node"><title>7</title>
<path fill="none" stroke="#d89556" stroke-width="2" d="M546,-180C546,-180 516,-180 516,-180 510,-180 504,-174 504,-168 504,-168 504,-156 504,-156 504,-150 510,-144 516,-144 516,-144 546,-144 546,-144 552,-144 558,-150 558,-156 558,-156 558,-168 558,-168 558,-174 552,-180 546,-180"/>
<text text-anchor="middle" x="531" y="-159.5" font-family="sans" font-size="10.00">chr22</text>
</g>
<!-- 7&#45;&gt;19 -->
<g id="edge10" class="edge"><title>7&#45;&gt;19</title>
<path fill="none" stroke="grey" stroke-width="2" d="M558.244,-147.327C561.162,-146.107 564.117,-144.969 567,-144 641.379,-119.001 732.223,-103.368 781.993,-96.0091"/>
<polygon fill="grey" stroke="grey" stroke-width="2" points="782.574,-99.4616 791.969,-94.564 781.57,-92.5339 782.574,-99.4616"/>
</g>
<!-- 8 -->
<g id="node9" class="node"><title>8</title>
<path fill="none" stroke="#d8ac56" stroke-width="2" d="M834,-36C834,-36 804,-36 804,-36 798,-36 792,-30 792,-24 792,-24 792,-12 792,-12 792,-6 798,-0 804,-0 804,-0 834,-0 834,-0 840,-0 846,-6 846,-12 846,-12 846,-24 846,-24 846,-30 840,-36 834,-36"/>
<text text-anchor="middle" x="819" y="-15.5" font-family="sans" font-size="10.00">all</text>
</g>
<!-- 9 -->
<g id="node10" class="node"><title>9</title>
<path fill="none" stroke="#56d8c9" stroke-width="2" d="M618,-180C618,-180 588,-180 588,-180 582,-180 576,-174 576,-168 576,-168 576,-156 576,-156 576,-150 582,-144 588,-144 588,-144 618,-144 618,-144 624,-144 630,-150 630,-156 630,-156 630,-168 630,-168 630,-174 624,-180 618,-180"/>
<text text-anchor="middle" x="603" y="-159.5" font-family="sans" font-size="10.00">chr14</text>
</g>
<!-- 9&#45;&gt;19 -->
<g id="edge11" class="edge"><title>9&#45;&gt;19</title>
<path fill="none" stroke="grey" stroke-width="2" d="M630.328,-147.56C633.229,-146.294 636.158,-145.082 639,-144 687.422,-125.566 745.154,-109.58 781.938,-100.115"/>
<polygon fill="grey" stroke="grey" stroke-width="2" points="782.905,-103.481 791.732,-97.6222 781.178,-96.6972 782.905,-103.481"/>
</g>
<!-- 10 -->
<g id="node11" class="node"><title>10</title>
<path fill="none" stroke="#d8d356" stroke-width="2" d="M690,-180C690,-180 660,-180 660,-180 654,-180 648,-174 648,-168 648,-168 648,-156 648,-156 648,-150 654,-144 660,-144 660,-144 690,-144 690,-144 696,-144 702,-150 702,-156 702,-156 702,-168 702,-168 702,-174 696,-180 690,-180"/>
<text text-anchor="middle" x="675" y="-159.5" font-family="sans" font-size="10.00">chr11</text>
</g>
<!-- 10&#45;&gt;19 -->
<g id="edge3" class="edge"><title>10&#45;&gt;19</title>
<path fill="none" stroke="grey" stroke-width="2" d="M702.085,-147.834C724.769,-136.807 757.357,-120.966 782.368,-108.807"/>
<polygon fill="grey" stroke="grey" stroke-width="2" points="784.083,-111.865 791.547,-104.345 781.023,-105.57 784.083,-111.865"/>
</g>
<!-- 11 -->
<g id="node12" class="node"><title>11</title>
<path fill="none" stroke="#566bd8" stroke-width="2" d="M762,-180C762,-180 732,-180 732,-180 726,-180 720,-174 720,-168 720,-168 720,-156 720,-156 720,-150 726,-144 732,-144 732,-144 762,-144 762,-144 768,-144 774,-150 774,-156 774,-156 774,-168 774,-168 774,-174 768,-180 762,-180"/>
<text text-anchor="middle" x="747" y="-159.5" font-family="sans" font-size="10.00">chr19</text>
</g>
<!-- 11&#45;&gt;19 -->
<g id="edge21" class="edge"><title>11&#45;&gt;19</title>
<path fill="none" stroke="grey" stroke-width="2" d="M764.798,-143.697C773.604,-135.135 784.382,-124.656 794.001,-115.304"/>
<polygon fill="grey" stroke="grey" stroke-width="2" points="796.677,-117.585 801.407,-108.104 791.797,-112.566 796.677,-117.585"/>
</g>
<!-- 12 -->
<g id="node13" class="node"><title>12</title>
<path fill="none" stroke="#56d0d8" stroke-width="2" d="M834,-180C834,-180 804,-180 804,-180 798,-180 792,-174 792,-168 792,-168 792,-156 792,-156 792,-150 798,-144 804,-144 804,-144 834,-144 834,-144 840,-144 846,-150 846,-156 846,-156 846,-168 846,-168 846,-174 840,-180 834,-180"/>
<text text-anchor="middle" x="819" y="-159.5" font-family="sans" font-size="10.00">chr3</text>
</g>
<!-- 12&#45;&gt;19 -->
<g id="edge13" class="edge"><title>12&#45;&gt;19</title>
<path fill="none" stroke="grey" stroke-width="2" d="M819,-143.697C819,-135.983 819,-126.712 819,-118.112"/>
<polygon fill="grey" stroke="grey" stroke-width="2" points="822.5,-118.104 819,-108.104 815.5,-118.104 822.5,-118.104"/>
</g>
<!-- 13 -->
<g id="node14" class="node"><title>13</title>
<path fill="none" stroke="#56c1d8" stroke-width="2" d="M906,-180C906,-180 876,-180 876,-180 870,-180 864,-174 864,-168 864,-168 864,-156 864,-156 864,-150 870,-144 876,-144 876,-144 906,-144 906,-144 912,-144 918,-150 918,-156 918,-156 918,-168 918,-168 918,-174 912,-180 906,-180"/>
<text text-anchor="middle" x="891" y="-159.5" font-family="sans" font-size="10.00">chr7</text>
</g>
<!-- 13&#45;&gt;19 -->
<g id="edge14" class="edge"><title>13&#45;&gt;19</title>
<path fill="none" stroke="grey" stroke-width="2" d="M873.202,-143.697C864.396,-135.135 853.618,-124.656 843.999,-115.304"/>
<polygon fill="grey" stroke="grey" stroke-width="2" points="846.203,-112.566 836.593,-108.104 841.323,-117.585 846.203,-112.566"/>
</g>
<!-- 14 -->
<g id="node15" class="node"><title>14</title>
<path fill="none" stroke="#c6d856" stroke-width="2" d="M978,-180C978,-180 948,-180 948,-180 942,-180 936,-174 936,-168 936,-168 936,-156 936,-156 936,-150 942,-144 948,-144 948,-144 978,-144 978,-144 984,-144 990,-150 990,-156 990,-156 990,-168 990,-168 990,-174 984,-180 978,-180"/>
<text text-anchor="middle" x="963" y="-159.5" font-family="sans" font-size="10.00">chr1</text>
</g>
<!-- 14&#45;&gt;19 -->
<g id="edge15" class="edge"><title>14&#45;&gt;19</title>
<path fill="none" stroke="grey" stroke-width="2" d="M935.915,-147.834C913.231,-136.807 880.643,-120.966 855.632,-108.807"/>
<polygon fill="grey" stroke="grey" stroke-width="2" points="856.977,-105.57 846.453,-104.345 853.917,-111.865 856.977,-105.57"/>
</g>
<!-- 15 -->
<g id="node16" class="node"><title>15</title>
<path fill="none" stroke="#56a9d8" stroke-width="2" d="M1050,-180C1050,-180 1020,-180 1020,-180 1014,-180 1008,-174 1008,-168 1008,-168 1008,-156 1008,-156 1008,-150 1014,-144 1020,-144 1020,-144 1050,-144 1050,-144 1056,-144 1062,-150 1062,-156 1062,-156 1062,-168 1062,-168 1062,-174 1056,-180 1050,-180"/>
<text text-anchor="middle" x="1035" y="-159.5" font-family="sans" font-size="10.00">chr4</text>
</g>
<!-- 15&#45;&gt;19 -->
<g id="edge16" class="edge"><title>15&#45;&gt;19</title>
<path fill="none" stroke="grey" stroke-width="2" d="M1007.67,-147.56C1004.77,-146.294 1001.84,-145.082 999,-144 950.578,-125.566 892.846,-109.58 856.062,-100.115"/>
<polygon fill="grey" stroke="grey" stroke-width="2" points="856.822,-96.6972 846.268,-97.6222 855.095,-103.481 856.822,-96.6972"/>
</g>
<!-- 16 -->
<g id="node17" class="node"><title>16</title>
<path fill="none" stroke="#5692d8" stroke-width="2" d="M1122,-180C1122,-180 1092,-180 1092,-180 1086,-180 1080,-174 1080,-168 1080,-168 1080,-156 1080,-156 1080,-150 1086,-144 1092,-144 1092,-144 1122,-144 1122,-144 1128,-144 1134,-150 1134,-156 1134,-156 1134,-168 1134,-168 1134,-174 1128,-180 1122,-180"/>
<text text-anchor="middle" x="1107" y="-159.5" font-family="sans" font-size="10.00">chrX</text>
</g>
<!-- 16&#45;&gt;19 -->
<g id="edge17" class="edge"><title>16&#45;&gt;19</title>
<path fill="none" stroke="grey" stroke-width="2" d="M1079.76,-147.327C1076.84,-146.107 1073.88,-144.969 1071,-144 996.621,-119.001 905.777,-103.368 856.007,-96.0091"/>
<polygon fill="grey" stroke="grey" stroke-width="2" points="856.43,-92.5339 846.031,-94.564 855.426,-99.4616 856.43,-92.5339"/>
</g>
<!-- 17 -->
<g id="node18" class="node"><title>17</title>
<path fill="none" stroke="#5682d8" stroke-width="2" d="M1194,-180C1194,-180 1164,-180 1164,-180 1158,-180 1152,-174 1152,-168 1152,-168 1152,-156 1152,-156 1152,-150 1158,-144 1164,-144 1164,-144 1194,-144 1194,-144 1200,-144 1206,-150 1206,-156 1206,-156 1206,-168 1206,-168 1206,-174 1200,-180 1194,-180"/>
<text text-anchor="middle" x="1179" y="-159.5" font-family="sans" font-size="10.00">chr13</text>
</g>
<!-- 17&#45;&gt;19 -->
<g id="edge18" class="edge"><title>17&#45;&gt;19</title>
<path fill="none" stroke="grey" stroke-width="2" d="M1151.8,-147.193C1148.87,-145.999 1145.9,-144.904 1143,-144 1042.11,-112.609 917.451,-98.8892 856.341,-93.7084"/>
<polygon fill="grey" stroke="grey" stroke-width="2" points="856.292,-90.1928 846.04,-92.8656 855.722,-97.1695 856.292,-90.1928"/>
</g>
<!-- 18 -->
<g id="node19" class="node"><title>18</title>
<path fill="none" stroke="#b6d856" stroke-width="2" d="M1266,-180C1266,-180 1236,-180 1236,-180 1230,-180 1224,-174 1224,-168 1224,-168 1224,-156 1224,-156 1224,-150 1230,-144 1236,-144 1236,-144 1266,-144 1266,-144 1272,-144 1278,-150 1278,-156 1278,-156 1278,-168 1278,-168 1278,-174 1272,-180 1266,-180"/>
<text text-anchor="middle" x="1251" y="-159.5" font-family="sans" font-size="10.00">chr15</text>
</g>
<!-- 18&#45;&gt;19 -->
<g id="edge19" class="edge"><title>18&#45;&gt;19</title>
<path fill="none" stroke="grey" stroke-width="2" d="M1223.83,-147.106C1220.89,-145.929 1217.92,-144.861 1215,-144 1086.87,-106.166 927.374,-95.261 856.245,-92.1803"/>
<polygon fill="grey" stroke="grey" stroke-width="2" points="856.14,-88.6732 846.006,-91.7651 855.856,-95.6675 856.14,-88.6732"/>
</g>
<!-- 19&#45;&gt;8 -->
<g id="edge1" class="edge"><title>19&#45;&gt;8</title>
<path fill="none" stroke="grey" stroke-width="2" d="M819,-71.6966C819,-63.9827 819,-54.7125 819,-46.1124"/>
<polygon fill="grey" stroke="grey" stroke-width="2" points="822.5,-46.1043 819,-36.1043 815.5,-46.1044 822.5,-46.1043"/>
</g>
<!-- 20 -->
<g id="node21" class="node"><title>20</title>
<path fill="none" stroke="#56d873" stroke-width="2" d="M1338,-180C1338,-180 1308,-180 1308,-180 1302,-180 1296,-174 1296,-168 1296,-168 1296,-156 1296,-156 1296,-150 1302,-144 1308,-144 1308,-144 1338,-144 1338,-144 1344,-144 1350,-150 1350,-156 1350,-156 1350,-168 1350,-168 1350,-174 1344,-180 1338,-180"/>
<text text-anchor="middle" x="1323" y="-159.5" font-family="sans" font-size="10.00">chr6</text>
</g>
<!-- 20&#45;&gt;19 -->
<g id="edge20" class="edge"><title>20&#45;&gt;19</title>
<path fill="none" stroke="grey" stroke-width="2" d="M1295.84,-147.045C1292.91,-145.88 1289.93,-144.832 1287,-144 1131.37,-99.7581 936.737,-92.2446 856.364,-91.1136"/>
<polygon fill="grey" stroke="grey" stroke-width="2" points="856.283,-87.6126 846.243,-90.9971 856.202,-94.6121 856.283,-87.6126"/>
</g>
<!-- 21 -->
<g id="node22" class="node"><title>21</title>
<path fill="none" stroke="#88d856" stroke-width="2" d="M1410,-180C1410,-180 1380,-180 1380,-180 1374,-180 1368,-174 1368,-168 1368,-168 1368,-156 1368,-156 1368,-150 1374,-144 1380,-144 1380,-144 1410,-144 1410,-144 1416,-144 1422,-150 1422,-156 1422,-156 1422,-168 1422,-168 1422,-174 1416,-180 1410,-180"/>
<text text-anchor="middle" x="1395" y="-159.5" font-family="sans" font-size="10.00">chr8</text>
</g>
<!-- 21&#45;&gt;19 -->
<g id="edge9" class="edge"><title>21&#45;&gt;19</title>
<path fill="none" stroke="grey" stroke-width="2" d="M1367.86,-147C1364.92,-145.843 1361.93,-144.81 1359,-144 1175.55,-93.3261 945.322,-89.6257 856.413,-90.3172"/>
<polygon fill="grey" stroke="grey" stroke-width="2" points="856.247,-86.8187 846.283,-90.4205 856.319,-93.8183 856.247,-86.8187"/>
</g>
<!-- 22 -->
<g id="node23" class="node"><title>22</title>
<path fill="none" stroke="#78d856" stroke-width="2" d="M1482,-180C1482,-180 1452,-180 1452,-180 1446,-180 1440,-174 1440,-168 1440,-168 1440,-156 1440,-156 1440,-150 1446,-144 1452,-144 1452,-144 1482,-144 1482,-144 1488,-144 1494,-150 1494,-156 1494,-156 1494,-168 1494,-168 1494,-174 1488,-180 1482,-180"/>
<text text-anchor="middle" x="1467" y="-159.5" font-family="sans" font-size="10.00">chr10</text>
</g>
<!-- 22&#45;&gt;19 -->
<g id="edge22" class="edge"><title>22&#45;&gt;19</title>
<path fill="none" stroke="grey" stroke-width="2" d="M1439.87,-146.965C1436.93,-145.816 1433.94,-144.793 1431,-144 1321.55,-114.44 971.767,-97.4229 856.347,-92.5038"/>
<polygon fill="grey" stroke="grey" stroke-width="2" points="856.375,-89.002 846.237,-92.0785 856.081,-95.9958 856.375,-89.002"/>
</g>
<!-- 23 -->
<g id="node24" class="node"><title>23</title>
<path fill="none" stroke="#61d856" stroke-width="2" d="M1554,-180C1554,-180 1524,-180 1524,-180 1518,-180 1512,-174 1512,-168 1512,-168 1512,-156 1512,-156 1512,-150 1518,-144 1524,-144 1524,-144 1554,-144 1554,-144 1560,-144 1566,-150 1566,-156 1566,-156 1566,-168 1566,-168 1566,-174 1560,-180 1554,-180"/>
<text text-anchor="middle" x="1539" y="-159.5" font-family="sans" font-size="10.00">chr21</text>
</g>
<!-- 23&#45;&gt;19 -->
<g id="edge23" class="edge"><title>23&#45;&gt;19</title>
<path fill="none" stroke="grey" stroke-width="2" d="M1511.87,-146.938C1508.93,-145.793 1505.94,-144.78 1503,-144 1379.25,-111.178 980.966,-96.1054 856.518,-92.118"/>
<polygon fill="grey" stroke="grey" stroke-width="2" points="856.454,-88.6143 846.348,-91.7974 856.233,-95.6108 856.454,-88.6143"/>
</g>
<!-- 24 -->
<g id="node25" class="node"><title>24</title>
<path fill="none" stroke="#56d863" stroke-width="2" d="M1626,-180C1626,-180 1596,-180 1596,-180 1590,-180 1584,-174 1584,-168 1584,-168 1584,-156 1584,-156 1584,-150 1590,-144 1596,-144 1596,-144 1626,-144 1626,-144 1632,-144 1638,-150 1638,-156 1638,-156 1638,-168 1638,-168 1638,-174 1632,-180 1626,-180"/>
<text text-anchor="middle" x="1611" y="-159.5" font-family="sans" font-size="10.00">chr20</text>
</g>
<!-- 24&#45;&gt;19 -->
<g id="edge24" class="edge"><title>24&#45;&gt;19</title>
<path fill="none" stroke="grey" stroke-width="2" d="M1583.88,-146.916C1580.94,-145.776 1577.94,-144.769 1575,-144 1436.81,-107.89 989.22,-94.9077 856.454,-91.7974"/>
<polygon fill="grey" stroke="grey" stroke-width="2" points="856.45,-88.2965 846.373,-91.5662 856.29,-95.2946 856.45,-88.2965"/>
</g>
</g>
</svg>
