<?xml version="1.0" encoding="UTF-8" standalone="no"?>
<!-- Generated by graphviz version 2.38.0 (20140413.2041)
 -->

<!-- Title: snakemake_dag Pages: 1 -->

<svg
   xmlns:dc="http://purl.org/dc/elements/1.1/"
   xmlns:cc="http://creativecommons.org/ns#"
   xmlns:rdf="http://www.w3.org/1999/02/22-rdf-syntax-ns#"
   xmlns:svg="http://www.w3.org/2000/svg"
   xmlns="http://www.w3.org/2000/svg"
   xmlns:sodipodi="http://sodipodi.sourceforge.net/DTD/sodipodi-0.dtd"
   xmlns:inkscape="http://www.inkscape.org/namespaces/inkscape"
   width="1646pt"
   height="188pt"
   viewBox="0.00 0.00 1646.00 188.00"
   id="svg2"
   version="1.1"
   inkscape:version="0.91 r13725"
   sodipodi:docname="dag.svg">
  <metadata
     id="metadata356">
    <rdf:RDF>
      <cc:Work
         rdf:about="">
        <dc:format>image/svg+xml</dc:format>
        <dc:type
           rdf:resource="http://purl.org/dc/dcmitype/StillImage" />
      </cc:Work>
    </rdf:RDF>
  </metadata>
  <defs
     id="defs354" />
  <sodipodi:namedview
     pagecolor="#ffffff"
     bordercolor="#666666"
     borderopacity="1"
     objecttolerance="10"
     gridtolerance="10"
     guidetolerance="10"
     inkscape:pageopacity="0"
     inkscape:pageshadow="2"
     inkscape:window-width="1855"
     inkscape:window-height="1176"
     id="namedview352"
     showgrid="false"
     inkscape:zoom="0.40965797"
     inkscape:cx="724.9825"
     inkscape:cy="-367.17207"
     inkscape:window-x="65"
     inkscape:window-y="24"
     inkscape:window-maximized="1"
     inkscape:current-layer="graph0" />
  <g
     id="graph0"
     class="graph"
     transform="scale(1 1) rotate(0) translate(4 184)">
    <title
       id="title5">snakemake_dag</title>
    <polygon
       points="-4,4 -4,-184 1642,-184 1642,4 -4,4 "
       id="polygon7"
       transform="matrix(1,0,0,0.61046903,0,-41.273698)"
       style="fill:#ffffff;stroke:none" />
    <!-- 0 -->
    <g
       id="node1"
       class="node"
       transform="translate(0,30.4)">
      <title
         id="title10">0</title>
      <path
         d="m 42,-180 c 0,0 -30,0 -30,0 -6,0 -12,6 -12,12 0,0 0,12 0,12 0,6 6,12 12,12 0,0 30,0 30,0 6,0 12,-6 12,-12 0,0 0,-12 0,-12 0,-6 -6,-12 -12,-12"
         id="path12"
         inkscape:connector-curvature="0"
         style="fill:none;stroke:#56d8a2;stroke-width:2" />
      <text
         x="27"
         y="-159.5"
         font-size="10.00"
         id="text14"
         style="font-size:10px;font-family:sans;text-anchor:middle">chr3</text>
    </g>
    <!-- 5 -->
    <g
       id="node6"
       class="node"
       transform="translate(0,30.4)">
      <title
         id="title17">5</title>
      <path
         d="m 834,-108 c 0,0 -30,0 -30,0 -6,0 -12,6 -12,12 0,0 0,12 0,12 0,6 6,12 12,12 0,0 30,0 30,0 6,0 12,-6 12,-12 0,0 0,-12 0,-12 0,-6 -6,-12 -12,-12"
         id="path19"
         inkscape:connector-curvature="0"
         style="fill:none;stroke:#d87d56;stroke-width:2" />
      <text
         x="819"
         y="-87.5"
         font-size="10.00"
         id="text21"
         style="font-size:10px;font-family:sans;text-anchor:middle">merge</text>
    </g>
    <!-- 0&#45;&gt;5 -->
    <g
       id="edge1"
       class="edge"
       transform="translate(0,30.4)">
      <title
         id="title24">0-&gt;5</title>
      <path
         d="m 54.1215,-146.916 c 2.9417,1.14 5.9361,2.147 8.8785,2.916 138.195,36.11 585.78,49.0923 718.546,52.2026"
         id="path26"
         inkscape:connector-curvature="0"
         style="fill:none;stroke:#808080;stroke-width:2" />
      <polygon
         points="781.71,-95.2946 781.71,-95.2946 791.627,-91.5662 781.55,-88.2965 "
         id="polygon28"
         style="fill:#808080;stroke:#808080;stroke-width:2" />
    </g>
    <!-- 1 -->
    <g
       id="node2"
       class="node"
       transform="translate(0,30.4)">
      <title
         id="title31">1</title>
      <path
         d="m 114,-180 c 0,0 -30,0 -30,0 -6,0 -12,6 -12,12 0,0 0,12 0,12 0,6 6,12 12,12 0,0 30,0 30,0 6,0 12,-6 12,-12 0,0 0,-12 0,-12 0,-6 -6,-12 -12,-12"
         id="path33"
         inkscape:connector-curvature="0"
         style="fill:none;stroke:#d85656;stroke-width:2" />
      <text
         x="99"
         y="-159.5"
         font-size="10.00"
         id="text35"
         style="font-size:10px;font-family:sans;text-anchor:middle">chr21</text>
    </g>
    <!-- 1&#45;&gt;5 -->
    <g
       id="edge8"
       class="edge"
       transform="translate(0,30.4)">
      <title
         id="title38">1-&gt;5</title>
      <path
         d="m 126.127,-146.938 c 2.941,1.145 5.933,2.158 8.873,2.938 123.751,32.822 522.034,47.8946 646.482,51.882"
         id="path40"
         inkscape:connector-curvature="0"
         style="fill:none;stroke:#808080;stroke-width:2" />
      <polygon
         points="781.767,-95.6108 781.767,-95.6108 791.652,-91.7974 781.546,-88.6143 "
         id="polygon42"
         style="fill:#808080;stroke:#808080;stroke-width:2" />
    </g>
    <!-- 2 -->
    <g
       id="node3"
       class="node"
       transform="translate(0,30.4)">
      <title
         id="title45">2</title>
      <path
         d="m 186,-180 c 0,0 -30,0 -30,0 -6,0 -12,6 -12,12 0,0 0,12 0,12 0,6 6,12 12,12 0,0 30,0 30,0 6,0 12,-6 12,-12 0,0 0,-12 0,-12 0,-6 -6,-12 -12,-12"
         id="path47"
         inkscape:connector-curvature="0"
         style="fill:none;stroke:#d8d356;stroke-width:2" />
      <text
         x="171"
         y="-159.5"
         font-size="10.00"
         id="text49"
         style="font-size:10px;font-family:sans;text-anchor:middle">chr12</text>
    </g>
    <!-- 2&#45;&gt;5 -->
    <g
       id="edge3"
       class="edge"
       transform="translate(0,30.4)">
      <title
         id="title52">2-&gt;5</title>
      <path
         d="m 198.135,-146.965 c 2.939,1.149 5.929,2.172 8.865,2.965 109.452,29.56 459.233,46.5771 574.653,51.4962"
         id="path54"
         inkscape:connector-curvature="0"
         style="fill:none;stroke:#808080;stroke-width:2" />
      <polygon
         points="781.919,-95.9958 781.919,-95.9958 791.763,-92.0785 781.625,-89.002 "
         id="polygon56"
         style="fill:#808080;stroke:#808080;stroke-width:2" />
    </g>
    <!-- 3 -->
    <g
       id="node4"
       class="node"
       transform="translate(0,30.4)">
      <title
         id="title59">3</title>
      <path
         d="m 258,-180 c 0,0 -30,0 -30,0 -6,0 -12,6 -12,12 0,0 0,12 0,12 0,6 6,12 12,12 0,0 30,0 30,0 6,0 12,-6 12,-12 0,0 0,-12 0,-12 0,-6 -6,-12 -12,-12"
         id="path61"
         inkscape:connector-curvature="0"
         style="fill:none;stroke:#56d8b1;stroke-width:2" />
      <text
         x="243"
         y="-159.5"
         font-size="10.00"
         id="text63"
         style="font-size:10px;font-family:sans;text-anchor:middle">chr6</text>
    </g>
    <!-- 3&#45;&gt;5 -->
    <g
       id="edge4"
       class="edge"
       transform="translate(0,30.4)">
      <title
         id="title66">3-&gt;5</title>
      <path
         d="m 270.144,-147 c 2.937,1.157 5.925,2.19 8.856,3 183.45,50.6739 413.678,54.3743 502.587,53.6828"
         id="path68"
         inkscape:connector-curvature="0"
         style="fill:none;stroke:#808080;stroke-width:2" />
      <polygon
         points="781.681,-93.8183 781.681,-93.8183 791.717,-90.4205 781.753,-86.8187 "
         id="polygon70"
         style="fill:#808080;stroke:#808080;stroke-width:2" />
    </g>
    <!-- 4 -->
    <g
       id="node5"
       class="node"
       transform="translate(0,30.4)">
      <title
         id="title73">4</title>
      <path
         d="m 330,-180 c 0,0 -30,0 -30,0 -6,0 -12,6 -12,12 0,0 0,12 0,12 0,6 6,12 12,12 0,0 30,0 30,0 6,0 12,-6 12,-12 0,0 0,-12 0,-12 0,-6 -6,-12 -12,-12"
         id="path75"
         inkscape:connector-curvature="0"
         style="fill:none;stroke:#d86e56;stroke-width:2" />
      <text
         x="315"
         y="-159.5"
         font-size="10.00"
         id="text77"
         style="font-size:10px;font-family:sans;text-anchor:middle">chrX</text>
    </g>
    <!-- 4&#45;&gt;5 -->
    <g
       id="edge5"
       class="edge"
       transform="translate(0,30.4)">
      <title
         id="title80">4-&gt;5</title>
      <path
         d="m 342.157,-147.045 c 2.935,1.165 5.918,2.213 8.843,3.045 155.628,44.2419 350.263,51.7554 430.636,52.8864"
         id="path82"
         inkscape:connector-curvature="0"
         style="fill:none;stroke:#808080;stroke-width:2" />
      <polygon
         points="781.798,-94.6121 781.798,-94.6121 791.757,-90.9971 781.717,-87.6126 "
         id="polygon84"
         style="fill:#808080;stroke:#808080;stroke-width:2" />
    </g>
    <!-- 23 -->
    <g
       id="node24"
       class="node"
       transform="translate(0,30.4)">
      <title
         id="title87">23</title>
    </g>
    <!-- 5&#45;&gt;23 -->
    <!-- 6 -->
    <g
       id="node7"
       class="node"
       transform="translate(0,30.4)">
      <title
         id="title101">6</title>
      <path
         d="m 402,-180 c 0,0 -30,0 -30,0 -6,0 -12,6 -12,12 0,0 0,12 0,12 0,6 6,12 12,12 0,0 30,0 30,0 6,0 12,-6 12,-12 0,0 0,-12 0,-12 0,-6 -6,-12 -12,-12"
         id="path103"
         inkscape:connector-curvature="0"
         style="fill:none;stroke:#d89556;stroke-width:2" />
      <text
         x="387"
         y="-159.5"
         font-size="10.00"
         id="text105"
         style="font-size:10px;font-family:sans;text-anchor:middle">chr7</text>
    </g>
    <!-- 6&#45;&gt;5 -->
    <g
       id="edge6"
       class="edge"
       transform="translate(0,30.4)">
      <title
         id="title108">6-&gt;5</title>
      <path
         d="m 414.174,-147.106 c 2.932,1.177 5.909,2.245 8.826,3.106 128.133,37.834 287.626,48.739 358.755,51.8197"
         id="path110"
         inkscape:connector-curvature="0"
         style="fill:none;stroke:#808080;stroke-width:2" />
      <polygon
         points="782.144,-95.6675 782.144,-95.6675 791.994,-91.7651 781.86,-88.6732 "
         id="polygon112"
         style="fill:#808080;stroke:#808080;stroke-width:2" />
    </g>
    <!-- 7 -->
    <g
       id="node8"
       class="node"
       transform="translate(0,30.4)">
      <title
         id="title115">7</title>
      <path
         d="m 474,-180 c 0,0 -30,0 -30,0 -6,0 -12,6 -12,12 0,0 0,12 0,12 0,6 6,12 12,12 0,0 30,0 30,0 6,0 12,-6 12,-12 0,0 0,-12 0,-12 0,-6 -6,-12 -12,-12"
         id="path117"
         inkscape:connector-curvature="0"
         style="fill:none;stroke:#d8ac56;stroke-width:2" />
      <text
         x="459"
         y="-159.5"
         font-size="10.00"
         id="text119"
         style="font-size:10px;font-family:sans;text-anchor:middle">chr5</text>
    </g>
    <!-- 7&#45;&gt;5 -->
    <g
       id="edge7"
       class="edge"
       transform="translate(0,30.4)">
      <title
         id="title122">7-&gt;5</title>
      <path
         d="m 486.201,-147.193 c 2.926,1.194 5.895,2.289 8.799,3.193 100.886,31.391 225.549,45.1108 286.659,50.2916"
         id="path124"
         inkscape:connector-curvature="0"
         style="fill:none;stroke:#808080;stroke-width:2" />
      <polygon
         points="782.278,-97.1695 782.278,-97.1695 791.96,-92.8656 781.708,-90.1928 "
         id="polygon126"
         style="fill:#808080;stroke:#808080;stroke-width:2" />
    </g>
    <!-- 8 -->
    <g
       id="node9"
       class="node"
       transform="translate(0,30.4)">
      <title
         id="title129">8</title>
      <path
         d="m 546,-180 c 0,0 -30,0 -30,0 -6,0 -12,6 -12,12 0,0 0,12 0,12 0,6 6,12 12,12 0,0 30,0 30,0 6,0 12,-6 12,-12 0,0 0,-12 0,-12 0,-6 -6,-12 -12,-12"
         id="path131"
         inkscape:connector-curvature="0"
         style="fill:none;stroke:#56d8c9;stroke-width:2" />
      <text
         x="531"
         y="-159.5"
         font-size="10.00"
         id="text133"
         style="font-size:10px;font-family:sans;text-anchor:middle">chr2</text>
    </g>
    <!-- 8&#45;&gt;5 -->
    <g
       id="edge9"
       class="edge"
       transform="translate(0,30.4)">
      <title
         id="title136">8-&gt;5</title>
      <path
         d="m 558.244,-147.327 c 2.918,1.22 5.873,2.358 8.756,3.327 74.379,24.999 165.223,40.632 214.993,47.9909"
         id="path138"
         inkscape:connector-curvature="0"
         style="fill:none;stroke:#808080;stroke-width:2" />
      <polygon
         points="782.574,-99.4616 782.574,-99.4616 791.969,-94.564 781.57,-92.5339 "
         id="polygon140"
         style="fill:#808080;stroke:#808080;stroke-width:2" />
    </g>
    <!-- 9 -->
    <g
       id="node10"
       class="node"
       transform="translate(0,30.4)">
      <title
         id="title143">9</title>
      <path
         d="m 618,-180 c 0,0 -30,0 -30,0 -6,0 -12,6 -12,12 0,0 0,12 0,12 0,6 6,12 12,12 0,0 30,0 30,0 6,0 12,-6 12,-12 0,0 0,-12 0,-12 0,-6 -6,-12 -12,-12"
         id="path145"
         inkscape:connector-curvature="0"
         style="fill:none;stroke:#d8bc56;stroke-width:2" />
      <text
         x="603"
         y="-159.5"
         font-size="10.00"
         id="text147"
         style="font-size:10px;font-family:sans;text-anchor:middle">chr1</text>
    </g>
    <!-- 9&#45;&gt;5 -->
    <g
       id="edge10"
       class="edge"
       transform="translate(0,30.4)">
      <title
         id="title150">9-&gt;5</title>
      <path
         d="m 630.328,-147.56 c 2.901,1.266 5.83,2.478 8.672,3.56 48.422,18.434 106.154,34.42 142.938,43.885"
         id="path152"
         inkscape:connector-curvature="0"
         style="fill:none;stroke:#808080;stroke-width:2" />
      <polygon
         points="782.905,-103.481 782.905,-103.481 791.732,-97.6222 781.178,-96.6972 "
         id="polygon154"
         style="fill:#808080;stroke:#808080;stroke-width:2" />
    </g>
    <!-- 10 -->
    <g
       id="node11"
       class="node"
       transform="translate(0,30.4)">
      <title
         id="title157">10</title>
      <path
         d="m 690,-180 c 0,0 -30,0 -30,0 -6,0 -12,6 -12,12 0,0 0,12 0,12 0,6 6,12 12,12 0,0 30,0 30,0 6,0 12,-6 12,-12 0,0 0,-12 0,-12 0,-6 -6,-12 -12,-12"
         id="path159"
         inkscape:connector-curvature="0"
         style="fill:none;stroke:#56d873;stroke-width:2" />
      <text
         x="675"
         y="-159.5"
         font-size="10.00"
         id="text161"
         style="font-size:10px;font-family:sans;text-anchor:middle">chr20</text>
    </g>
    <!-- 10&#45;&gt;5 -->
    <g
       id="edge20"
       class="edge"
       transform="translate(0,30.4)">
      <title
         id="title164">10-&gt;5</title>
      <path
         d="m 702.085,-147.834 c 22.684,11.027 55.272,26.868 80.283,39.027"
         id="path166"
         inkscape:connector-curvature="0"
         style="fill:none;stroke:#808080;stroke-width:2" />
      <polygon
         points="784.083,-111.865 784.083,-111.865 791.547,-104.345 781.023,-105.57 "
         id="polygon168"
         style="fill:#808080;stroke:#808080;stroke-width:2" />
    </g>
    <!-- 11 -->
    <g
       id="node12"
       class="node"
       transform="translate(0,30.4)">
      <title
         id="title171">11</title>
      <path
         d="m 762,-180 c 0,0 -30,0 -30,0 -6,0 -12,6 -12,12 0,0 0,12 0,12 0,6 6,12 12,12 0,0 30,0 30,0 6,0 12,-6 12,-12 0,0 0,-12 0,-12 0,-6 -6,-12 -12,-12"
         id="path173"
         inkscape:connector-curvature="0"
         style="fill:none;stroke:#88d856;stroke-width:2" />
      <text
         x="747"
         y="-159.5"
         font-size="10.00"
         id="text175"
         style="font-size:10px;font-family:sans;text-anchor:middle">chr22</text>
    </g>
    <!-- 11&#45;&gt;5 -->
    <g
       id="edge11"
       class="edge"
       transform="translate(0,30.4)">
      <title
         id="title178">11-&gt;5</title>
      <path
         d="m 764.798,-143.697 c 8.806,8.562 19.584,19.041 29.203,28.393"
         id="path180"
         inkscape:connector-curvature="0"
         style="fill:none;stroke:#808080;stroke-width:2" />
      <polygon
         points="796.677,-117.585 796.677,-117.585 801.407,-108.104 791.797,-112.566 "
         id="polygon182"
         style="fill:#808080;stroke:#808080;stroke-width:2" />
    </g>
    <!-- 12 -->
    <g
       id="node13"
       class="node"
       transform="translate(0,30.4)">
      <title
         id="title185">12</title>
      <path
         d="m 834,-180 c 0,0 -30,0 -30,0 -6,0 -12,6 -12,12 0,0 0,12 0,12 0,6 6,12 12,12 0,0 30,0 30,0 6,0 12,-6 12,-12 0,0 0,-12 0,-12 0,-6 -6,-12 -12,-12"
         id="path187"
         inkscape:connector-curvature="0"
         style="fill:none;stroke:#b6d856;stroke-width:2" />
      <text
         x="819"
         y="-159.5"
         font-size="10.00"
         id="text189"
         style="font-size:10px;font-family:sans;text-anchor:middle">chr10</text>
    </g>
    <!-- 12&#45;&gt;5 -->
    <g
       id="edge12"
       class="edge"
       transform="translate(0,30.4)">
      <title
         id="title192">12-&gt;5</title>
      <path
         d="m 819,-143.697 c 0,7.714 0,16.985 0,25.585"
         id="path194"
         inkscape:connector-curvature="0"
         style="fill:none;stroke:#808080;stroke-width:2" />
      <polygon
         points="822.5,-118.104 822.5,-118.104 819,-108.104 815.5,-118.104 "
         id="polygon196"
         style="fill:#808080;stroke:#808080;stroke-width:2" />
    </g>
    <!-- 13 -->
    <g
       id="node14"
       class="node"
       transform="translate(0,30.4)">
      <title
         id="title199">13</title>
      <path
         d="m 906,-180 c 0,0 -30,0 -30,0 -6,0 -12,6 -12,12 0,0 0,12 0,12 0,6 6,12 12,12 0,0 30,0 30,0 6,0 12,-6 12,-12 0,0 0,-12 0,-12 0,-6 -6,-12 -12,-12"
         id="path201"
         inkscape:connector-curvature="0"
         style="fill:none;stroke:#9fd856;stroke-width:2" />
      <text
         x="891"
         y="-159.5"
         font-size="10.00"
         id="text203"
         style="font-size:10px;font-family:sans;text-anchor:middle">chr15</text>
    </g>
    <!-- 13&#45;&gt;5 -->
    <g
       id="edge13"
       class="edge"
       transform="translate(0,30.4)">
      <title
         id="title206">13-&gt;5</title>
      <path
         d="m 873.202,-143.697 c -8.806,8.562 -19.584,19.041 -29.203,28.393"
         id="path208"
         inkscape:connector-curvature="0"
         style="fill:none;stroke:#808080;stroke-width:2" />
      <polygon
         points="846.203,-112.566 846.203,-112.566 836.593,-108.104 841.323,-117.585 "
         id="polygon210"
         style="fill:#808080;stroke:#808080;stroke-width:2" />
    </g>
    <!-- 14 -->
    <g
       id="node15"
       class="node"
       transform="translate(0,30.4)">
      <title
         id="title213">14</title>
      <path
         d="m 978,-180 c 0,0 -30,0 -30,0 -6,0 -12,6 -12,12 0,0 0,12 0,12 0,6 6,12 12,12 0,0 30,0 30,0 6,0 12,-6 12,-12 0,0 0,-12 0,-12 0,-6 -6,-12 -12,-12"
         id="path215"
         inkscape:connector-curvature="0"
         style="fill:none;stroke:#78d856;stroke-width:2" />
      <text
         x="963"
         y="-159.5"
         font-size="10.00"
         id="text217"
         style="font-size:10px;font-family:sans;text-anchor:middle">chr13</text>
    </g>
    <!-- 14&#45;&gt;5 -->
    <g
       id="edge14"
       class="edge"
       transform="translate(0,30.4)">
      <title
         id="title220">14-&gt;5</title>
      <path
         d="m 935.915,-147.834 c -22.684,11.027 -55.272,26.868 -80.283,39.027"
         id="path222"
         inkscape:connector-curvature="0"
         style="fill:none;stroke:#808080;stroke-width:2" />
      <polygon
         points="856.977,-105.57 856.977,-105.57 846.453,-104.345 853.917,-111.865 "
         id="polygon224"
         style="fill:#808080;stroke:#808080;stroke-width:2" />
    </g>
    <!-- 15 -->
    <g
       id="node16"
       class="node"
       transform="translate(0,30.4)">
      <title
         id="title227">15</title>
      <path
         d="m 1050,-180 c 0,0 -30,0 -30,0 -6,0 -12,6 -12,12 0,0 0,12 0,12 0,6 6,12 12,12 0,0 30,0 30,0 6,0 12,-6 12,-12 0,0 0,-12 0,-12 0,-6 -6,-12 -12,-12"
         id="path229"
         inkscape:connector-curvature="0"
         style="fill:none;stroke:#56d0d8;stroke-width:2" />
      <text
         x="1035"
         y="-159.5"
         font-size="10.00"
         id="text231"
         style="font-size:10px;font-family:sans;text-anchor:middle">chr17</text>
    </g>
    <!-- 15&#45;&gt;5 -->
    <g
       id="edge15"
       class="edge"
       transform="translate(0,30.4)">
      <title
         id="title234">15-&gt;5</title>
      <path
         d="m 1007.67,-147.56 c -2.9,1.266 -5.83,2.478 -8.67,3.56 -48.422,18.434 -106.154,34.42 -142.938,43.885"
         id="path236"
         inkscape:connector-curvature="0"
         style="fill:none;stroke:#808080;stroke-width:2" />
      <polygon
         points="856.822,-96.6972 856.822,-96.6972 846.268,-97.6222 855.095,-103.481 "
         id="polygon238"
         style="fill:#808080;stroke:#808080;stroke-width:2" />
    </g>
    <!-- 16 -->
    <g
       id="node17"
       class="node"
       transform="translate(0,30.4)">
      <title
         id="title241">16</title>
      <path
         d="m 1122,-180 c 0,0 -30,0 -30,0 -6,0 -12,6 -12,12 0,0 0,12 0,12 0,6 6,12 12,12 0,0 30,0 30,0 6,0 12,-6 12,-12 0,0 0,-12 0,-12 0,-6 -6,-12 -12,-12"
         id="path243"
         inkscape:connector-curvature="0"
         style="fill:none;stroke:#56c1d8;stroke-width:2" />
      <text
         x="1107"
         y="-159.5"
         font-size="10.00"
         id="text245"
         style="font-size:10px;font-family:sans;text-anchor:middle">chr19</text>
    </g>
    <!-- 16&#45;&gt;5 -->
    <g
       id="edge16"
       class="edge"
       transform="translate(0,30.4)">
      <title
         id="title248">16-&gt;5</title>
      <path
         d="m 1079.76,-147.327 c -2.92,1.22 -5.88,2.358 -8.76,3.327 -74.379,24.999 -165.223,40.632 -214.993,47.9909"
         id="path250"
         inkscape:connector-curvature="0"
         style="fill:none;stroke:#808080;stroke-width:2" />
      <polygon
         points="856.43,-92.5339 856.43,-92.5339 846.031,-94.564 855.426,-99.4616 "
         id="polygon252"
         style="fill:#808080;stroke:#808080;stroke-width:2" />
    </g>
    <!-- 17 -->
    <g
       id="node18"
       class="node"
       transform="translate(0,30.4)">
      <title
         id="title255">17</title>
      <path
         d="m 1194,-180 c 0,0 -30,0 -30,0 -6,0 -12,6 -12,12 0,0 0,12 0,12 0,6 6,12 12,12 0,0 30,0 30,0 6,0 12,-6 12,-12 0,0 0,-12 0,-12 0,-6 -6,-12 -12,-12"
         id="path257"
         inkscape:connector-curvature="0"
         style="fill:none;stroke:#c6d856;stroke-width:2" />
      <text
         x="1179"
         y="-159.5"
         font-size="10.00"
         id="text259"
         style="font-size:10px;font-family:sans;text-anchor:middle">chr11</text>
    </g>
    <!-- 17&#45;&gt;5 -->
    <g
       id="edge17"
       class="edge"
       transform="translate(0,30.4)">
      <title
         id="title262">17-&gt;5</title>
      <path
         d="m 1151.8,-147.193 c -2.93,1.194 -5.9,2.289 -8.8,3.193 -100.89,31.391 -225.549,45.1108 -286.659,50.2916"
         id="path264"
         inkscape:connector-curvature="0"
         style="fill:none;stroke:#808080;stroke-width:2" />
      <polygon
         points="856.292,-90.1928 856.292,-90.1928 846.04,-92.8656 855.722,-97.1695 "
         id="polygon266"
         style="fill:#808080;stroke:#808080;stroke-width:2" />
    </g>
    <!-- 18 -->
    <g
       id="node19"
       class="node"
       transform="translate(0,30.4)">
      <title
         id="title269">18</title>
      <path
         d="m 1266,-180 c 0,0 -30,0 -30,0 -6,0 -12,6 -12,12 0,0 0,12 0,12 0,6 6,12 12,12 0,0 30,0 30,0 6,0 12,-6 12,-12 0,0 0,-12 0,-12 0,-6 -6,-12 -12,-12"
         id="path271"
         inkscape:connector-curvature="0"
         style="fill:none;stroke:#56d863;stroke-width:2" />
      <text
         x="1251"
         y="-159.5"
         font-size="10.00"
         id="text273"
         style="font-size:10px;font-family:sans;text-anchor:middle">chr16</text>
    </g>
    <!-- 18&#45;&gt;5 -->
    <g
       id="edge2"
       class="edge"
       transform="translate(0,30.4)">
      <title
         id="title276">18-&gt;5</title>
      <path
         d="m 1223.83,-147.106 c -2.94,1.177 -5.91,2.245 -8.83,3.106 -128.13,37.834 -287.626,48.739 -358.755,51.8197"
         id="path278"
         inkscape:connector-curvature="0"
         style="fill:none;stroke:#808080;stroke-width:2" />
      <polygon
         points="856.14,-88.6732 856.14,-88.6732 846.006,-91.7651 855.856,-95.6675 "
         id="polygon280"
         style="fill:#808080;stroke:#808080;stroke-width:2" />
    </g>
    <!-- 19 -->
    <g
       id="node20"
       class="node"
       transform="translate(0,30.4)">
      <title
         id="title283">19</title>
      <path
         d="m 1338,-180 c 0,0 -30,0 -30,0 -6,0 -12,6 -12,12 0,0 0,12 0,12 0,6 6,12 12,12 0,0 30,0 30,0 6,0 12,-6 12,-12 0,0 0,-12 0,-12 0,-6 -6,-12 -12,-12"
         id="path285"
         inkscape:connector-curvature="0"
         style="fill:none;stroke:#5692d8;stroke-width:2" />
      <text
         x="1323"
         y="-159.5"
         font-size="10.00"
         id="text287"
         style="font-size:10px;font-family:sans;text-anchor:middle">chr18</text>
    </g>
    <!-- 19&#45;&gt;5 -->
    <g
       id="edge19"
       class="edge"
       transform="translate(0,30.4)">
      <title
         id="title290">19-&gt;5</title>
      <path
         d="m 1295.84,-147.045 c -2.93,1.165 -5.91,2.213 -8.84,3.045 -155.63,44.2419 -350.263,51.7554 -430.636,52.8864"
         id="path292"
         inkscape:connector-curvature="0"
         style="fill:none;stroke:#808080;stroke-width:2" />
      <polygon
         points="856.283,-87.6126 856.283,-87.6126 846.243,-90.9971 856.202,-94.6121 "
         id="polygon294"
         style="fill:#808080;stroke:#808080;stroke-width:2" />
    </g>
    <!-- 20 -->
    <g
       id="node21"
       class="node"
       transform="translate(0,30.4)">
      <title
         id="title297">20</title>
      <path
         d="m 1410,-180 c 0,0 -30,0 -30,0 -6,0 -12,6 -12,12 0,0 0,12 0,12 0,6 6,12 12,12 0,0 30,0 30,0 6,0 12,-6 12,-12 0,0 0,-12 0,-12 0,-6 -6,-12 -12,-12"
         id="path299"
         inkscape:connector-curvature="0"
         style="fill:none;stroke:#56a9d8;stroke-width:2" />
      <text
         x="1395"
         y="-159.5"
         font-size="10.00"
         id="text301"
         style="font-size:10px;font-family:sans;text-anchor:middle">chr4</text>
    </g>
    <!-- 20&#45;&gt;5 -->
    <g
       id="edge18"
       class="edge"
       transform="translate(0,30.4)">
      <title
         id="title304">20-&gt;5</title>
      <path
         d="m 1367.86,-147 c -2.94,1.157 -5.93,2.19 -8.86,3 -183.45,50.6739 -413.678,54.3743 -502.587,53.6828"
         id="path306"
         inkscape:connector-curvature="0"
         style="fill:none;stroke:#808080;stroke-width:2" />
      <polygon
         points="856.247,-86.8187 856.247,-86.8187 846.283,-90.4205 856.319,-93.8183 "
         id="polygon308"
         style="fill:#808080;stroke:#808080;stroke-width:2" />
    </g>
    <!-- 21 -->
    <g
       id="node22"
       class="node"
       transform="translate(0,30.4)">
      <title
         id="title311">21</title>
      <path
         d="m 1482,-180 c 0,0 -30,0 -30,0 -6,0 -12,6 -12,12 0,0 0,12 0,12 0,6 6,12 12,12 0,0 30,0 30,0 6,0 12,-6 12,-12 0,0 0,-12 0,-12 0,-6 -6,-12 -12,-12"
         id="path313"
         inkscape:connector-curvature="0"
         style="fill:none;stroke:#61d856;stroke-width:2" />
      <text
         x="1467"
         y="-159.5"
         font-size="10.00"
         id="text315"
         style="font-size:10px;font-family:sans;text-anchor:middle">chr9</text>
    </g>
    <!-- 21&#45;&gt;5 -->
    <g
       id="edge21"
       class="edge"
       transform="translate(0,30.4)">
      <title
         id="title318">21-&gt;5</title>
      <path
         d="m 1439.87,-146.965 c -2.94,1.149 -5.93,2.172 -8.87,2.965 -109.45,29.56 -459.233,46.5771 -574.653,51.4962"
         id="path320"
         inkscape:connector-curvature="0"
         style="fill:none;stroke:#808080;stroke-width:2" />
      <polygon
         points="856.375,-89.002 856.375,-89.002 846.237,-92.0785 856.081,-95.9958 "
         id="polygon322"
         style="fill:#808080;stroke:#808080;stroke-width:2" />
    </g>
    <!-- 22 -->
    <g
       id="node23"
       class="node"
       transform="translate(0,30.4)">
      <title
         id="title325">22</title>
      <path
         d="m 1554,-180 c 0,0 -30,0 -30,0 -6,0 -12,6 -12,12 0,0 0,12 0,12 0,6 6,12 12,12 0,0 30,0 30,0 6,0 12,-6 12,-12 0,0 0,-12 0,-12 0,-6 -6,-12 -12,-12"
         id="path327"
         inkscape:connector-curvature="0"
         style="fill:none;stroke:#56d88a;stroke-width:2" />
      <text
         x="1539"
         y="-159.5"
         font-size="10.00"
         id="text329"
         style="font-size:10px;font-family:sans;text-anchor:middle">chr8</text>
    </g>
    <!-- 22&#45;&gt;5 -->
    <g
       id="edge22"
       class="edge"
       transform="translate(0,30.4)">
      <title
         id="title332">22-&gt;5</title>
      <path
         d="m 1511.87,-146.938 c -2.94,1.145 -5.93,2.158 -8.87,2.938 -123.75,32.822 -522.034,47.8946 -646.482,51.882"
         id="path334"
         inkscape:connector-curvature="0"
         style="fill:none;stroke:#808080;stroke-width:2" />
      <polygon
         points="856.454,-88.6143 856.454,-88.6143 846.348,-91.7974 856.233,-95.6108 "
         id="polygon336"
         style="fill:#808080;stroke:#808080;stroke-width:2" />
    </g>
    <!-- 24 -->
    <g
       id="node25"
       class="node"
       transform="translate(0,30.4)">
      <title
         id="title339">24</title>
      <path
         d="m 1626,-180 c 0,0 -30,0 -30,0 -6,0 -12,6 -12,12 0,0 0,12 0,12 0,6 6,12 12,12 0,0 30,0 30,0 6,0 12,-6 12,-12 0,0 0,-12 0,-12 0,-6 -6,-12 -12,-12"
         id="path341"
         inkscape:connector-curvature="0"
         style="fill:none;stroke:#566bd8;stroke-width:2" />
      <text
         x="1611"
         y="-159.5"
         font-size="10.00"
         id="text343"
         style="font-size:10px;font-family:sans;text-anchor:middle">chr14</text>
    </g>
    <!-- 24&#45;&gt;5 -->
    <g
       id="edge23"
       class="edge"
       transform="translate(0,30.4)">
      <title
         id="title346">24-&gt;5</title>
      <path
         d="m 1583.88,-146.916 c -2.94,1.14 -5.94,2.147 -8.88,2.916 -138.19,36.11 -585.78,49.0923 -718.546,52.2026"
         id="path348"
         inkscape:connector-curvature="0"
         style="fill:none;stroke:#808080;stroke-width:2" />
      <polygon
         points="856.45,-88.2965 856.45,-88.2965 846.373,-91.5662 856.29,-95.2946 "
         id="polygon350"
         style="fill:#808080;stroke:#808080;stroke-width:2" />
    </g>
  </g>
</svg>
