<?xml version="1.0" encoding="UTF-8" standalone="no"?>
<!DOCTYPE svg PUBLIC "-//W3C//DTD SVG 1.1//EN"
 "http://www.w3.org/Graphics/SVG/1.1/DTD/svg11.dtd">
<!-- Generated by graphviz version 2.38.0 (20140413.2041)
 -->
<!-- Title: snakemake_dag Pages: 1 -->
<svg width="533pt" height="404pt"
 viewBox="0.00 0.00 532.76 404.00" xmlns="http://www.w3.org/2000/svg" xmlns:xlink="http://www.w3.org/1999/xlink">
<g id="graph0" class="graph" transform="scale(1 1) rotate(0) translate(4 400)">
<title>snakemake_dag</title>
<polygon fill="white" stroke="none" points="-4,4 -4,-400 528.764,-400 528.764,4 -4,4"/>
<!-- 0 -->
<g id="node1" class="node"><title>0</title>
<path fill="none" stroke="#d88d56" stroke-width="2" d="M323.5,-180C323.5,-180 201.5,-180 201.5,-180 195.5,-180 189.5,-174 189.5,-168 189.5,-168 189.5,-156 189.5,-156 189.5,-150 195.5,-144 201.5,-144 201.5,-144 323.5,-144 323.5,-144 329.5,-144 335.5,-150 335.5,-156 335.5,-156 335.5,-168 335.5,-168 335.5,-174 329.5,-180 323.5,-180"/>
<text text-anchor="middle" x="262.5" y="-159.5" font-family="sans" font-size="10.00">overlapPopDelDellyLumpy</text>
</g>
<!-- 8 -->
<g id="node9" class="node"><title>8</title>
<path fill="none" stroke="#56c9d8" stroke-width="2" d="M283.5,-108C283.5,-108 241.5,-108 241.5,-108 235.5,-108 229.5,-102 229.5,-96 229.5,-96 229.5,-84 229.5,-84 229.5,-78 235.5,-72 241.5,-72 241.5,-72 283.5,-72 283.5,-72 289.5,-72 295.5,-78 295.5,-84 295.5,-84 295.5,-96 295.5,-96 295.5,-102 289.5,-108 283.5,-108"/>
<text text-anchor="middle" x="262.5" y="-87.5" font-family="sans" font-size="10.00">getCounts</text>
</g>
<!-- 0&#45;&gt;8 -->
<g id="edge8" class="edge"><title>0&#45;&gt;8</title>
<path fill="none" stroke="grey" stroke-width="2" d="M262.5,-143.697C262.5,-135.983 262.5,-126.712 262.5,-118.112"/>
<polygon fill="grey" stroke="grey" stroke-width="2" points="266,-118.104 262.5,-108.104 259,-118.104 266,-118.104"/>
</g>
<!-- 1 -->
<g id="node2" class="node"><title>1</title>
<path fill="none" stroke="#afd856" stroke-width="2" d="M114.5,-324C114.5,-324 46.5,-324 46.5,-324 40.5,-324 34.5,-318 34.5,-312 34.5,-312 34.5,-300 34.5,-300 34.5,-294 40.5,-288 46.5,-288 46.5,-288 114.5,-288 114.5,-288 120.5,-288 126.5,-294 126.5,-300 126.5,-300 126.5,-312 126.5,-312 126.5,-318 120.5,-324 114.5,-324"/>
<text text-anchor="middle" x="80.5" y="-303.5" font-family="sans" font-size="10.00">vcf2bed_lumpy</text>
</g>
<!-- 7 -->
<g id="node8" class="node"><title>7</title>
<path fill="none" stroke="#d8cb56" stroke-width="2" d="M147,-252C147,-252 50,-252 50,-252 44,-252 38,-246 38,-240 38,-240 38,-228 38,-228 38,-222 44,-216 50,-216 50,-216 147,-216 147,-216 153,-216 159,-222 159,-228 159,-228 159,-240 159,-240 159,-246 153,-252 147,-252"/>
<text text-anchor="middle" x="98.5" y="-237" font-family="sans" font-size="10.00">centromereFilterCalls</text>
<text text-anchor="middle" x="98.5" y="-226" font-family="sans" font-size="10.00">tool: lumpy</text>
</g>
<!-- 1&#45;&gt;7 -->
<g id="edge7" class="edge"><title>1&#45;&gt;7</title>
<path fill="none" stroke="grey" stroke-width="2" d="M84.9494,-287.697C86.9548,-279.898 89.3692,-270.509 91.6011,-261.829"/>
<polygon fill="grey" stroke="grey" stroke-width="2" points="95.001,-262.661 94.1017,-252.104 88.2215,-260.918 95.001,-262.661"/>
</g>
<!-- 2 -->
<g id="node3" class="node"><title>2</title>
<path fill="none" stroke="#d85656" stroke-width="2" d="M83,-180C83,-180 12,-180 12,-180 6,-180 0,-174 0,-168 0,-168 0,-156 0,-156 0,-150 6,-144 12,-144 12,-144 83,-144 83,-144 89,-144 95,-150 95,-156 95,-156 95,-168 95,-168 95,-174 89,-180 83,-180"/>
<text text-anchor="middle" x="47.5" y="-159.5" font-family="sans" font-size="10.00">overlapPopDelX</text>
</g>
<!-- 2&#45;&gt;8 -->
<g id="edge10" class="edge"><title>2&#45;&gt;8</title>
<path fill="none" stroke="grey" stroke-width="2" d="M95.2155,-145.465C132.419,-133.352 183.63,-116.679 219.559,-104.981"/>
<polygon fill="grey" stroke="grey" stroke-width="2" points="220.838,-108.245 229.264,-101.821 218.671,-101.589 220.838,-108.245"/>
</g>
<!-- 3 -->
<g id="node4" class="node"><title>3</title>
<path fill="none" stroke="#70d856" stroke-width="2" d="M478,-396C478,-396 417,-396 417,-396 411,-396 405,-390 405,-384 405,-384 405,-372 405,-372 405,-366 411,-360 417,-360 417,-360 478,-360 478,-360 484,-360 490,-366 490,-372 490,-372 490,-384 490,-384 490,-390 484,-396 478,-396"/>
<text text-anchor="middle" x="447.5" y="-375.5" font-family="sans" font-size="10.00">vcf2bed_delly</text>
</g>
<!-- 10 -->
<g id="node11" class="node"><title>10</title>
<path fill="none" stroke="#d8cb56" stroke-width="2" d="M496,-324C496,-324 399,-324 399,-324 393,-324 387,-318 387,-312 387,-312 387,-300 387,-300 387,-294 393,-288 399,-288 399,-288 496,-288 496,-288 502,-288 508,-294 508,-300 508,-300 508,-312 508,-312 508,-318 502,-324 496,-324"/>
<text text-anchor="middle" x="447.5" y="-309" font-family="sans" font-size="10.00">centromereFilterCalls</text>
<text text-anchor="middle" x="447.5" y="-298" font-family="sans" font-size="10.00">tool: delly</text>
</g>
<!-- 3&#45;&gt;10 -->
<g id="edge17" class="edge"><title>3&#45;&gt;10</title>
<path fill="none" stroke="grey" stroke-width="2" d="M447.5,-359.697C447.5,-351.983 447.5,-342.712 447.5,-334.112"/>
<polygon fill="grey" stroke="grey" stroke-width="2" points="451,-334.104 447.5,-324.104 444,-334.104 451,-334.104"/>
</g>
<!-- 4 -->
<g id="node5" class="node"><title>4</title>
<path fill="none" stroke="#d8cb56" stroke-width="2" d="M254,-324C254,-324 157,-324 157,-324 151,-324 145,-318 145,-312 145,-312 145,-300 145,-300 145,-294 151,-288 157,-288 157,-288 254,-288 254,-288 260,-288 266,-294 266,-300 266,-300 266,-312 266,-312 266,-318 260,-324 254,-324"/>
<text text-anchor="middle" x="205.5" y="-309" font-family="sans" font-size="10.00">centromereFilterCalls</text>
<text text-anchor="middle" x="205.5" y="-298" font-family="sans" font-size="10.00">tool: popdel</text>
</g>
<!-- 4&#45;&gt;2 -->
<g id="edge4" class="edge"><title>4&#45;&gt;2</title>
<path fill="none" stroke="grey" stroke-width="2" d="M144.864,-288.689C95.0802,-275.009 32.1753,-256.937 28.5,-252 15.0215,-233.894 22.5038,-208.279 31.7498,-189.175"/>
<polygon fill="grey" stroke="grey" stroke-width="2" points="34.9547,-190.6 36.4945,-180.117 28.7539,-187.351 34.9547,-190.6"/>
</g>
<!-- 4&#45;&gt;8 -->
<g id="edge13" class="edge"><title>4&#45;&gt;8</title>
<path fill="none" stroke="grey" stroke-width="2" d="M196.248,-287.827C181.022,-257.025 154.805,-191.204 180.5,-144 189.172,-128.07 204.92,-116.197 220.314,-107.773"/>
<polygon fill="grey" stroke="grey" stroke-width="2" points="221.957,-110.864 229.28,-103.208 218.781,-104.626 221.957,-110.864"/>
</g>
<!-- 11 -->
<g id="node12" class="node"><title>11</title>
<path fill="none" stroke="#d85656" stroke-width="2" d="M362,-252C362,-252 291,-252 291,-252 285,-252 279,-246 279,-240 279,-240 279,-228 279,-228 279,-222 285,-216 291,-216 291,-216 362,-216 362,-216 368,-216 374,-222 374,-228 374,-228 374,-240 374,-240 374,-246 368,-252 362,-252"/>
<text text-anchor="middle" x="326.5" y="-231.5" font-family="sans" font-size="10.00">overlapPopDelX</text>
</g>
<!-- 4&#45;&gt;11 -->
<g id="edge19" class="edge"><title>4&#45;&gt;11</title>
<path fill="none" stroke="grey" stroke-width="2" d="M235.1,-287.876C251.067,-278.639 270.96,-267.131 288.106,-257.212"/>
<polygon fill="grey" stroke="grey" stroke-width="2" points="289.883,-260.227 296.786,-252.19 286.378,-254.168 289.883,-260.227"/>
</g>
<!-- 5 -->
<g id="node6" class="node"><title>5</title>
<path fill="none" stroke="#56d873" stroke-width="2" d="M277.5,-36C277.5,-36 247.5,-36 247.5,-36 241.5,-36 235.5,-30 235.5,-24 235.5,-24 235.5,-12 235.5,-12 235.5,-6 241.5,-0 247.5,-0 247.5,-0 277.5,-0 277.5,-0 283.5,-0 289.5,-6 289.5,-12 289.5,-12 289.5,-24 289.5,-24 289.5,-30 283.5,-36 277.5,-36"/>
<text text-anchor="middle" x="262.5" y="-15.5" font-family="sans" font-size="10.00">all</text>
</g>
<!-- 6 -->
<g id="node7" class="node"><title>6</title>
<path fill="none" stroke="#56d8a9" stroke-width="2" d="M240.5,-396C240.5,-396 170.5,-396 170.5,-396 164.5,-396 158.5,-390 158.5,-384 158.5,-384 158.5,-372 158.5,-372 158.5,-366 164.5,-360 170.5,-360 170.5,-360 240.5,-360 240.5,-360 246.5,-360 252.5,-366 252.5,-372 252.5,-372 252.5,-384 252.5,-384 252.5,-390 246.5,-396 240.5,-396"/>
<text text-anchor="middle" x="205.5" y="-375.5" font-family="sans" font-size="10.00">vcf2bed_popdel</text>
</g>
<!-- 6&#45;&gt;4 -->
<g id="edge5" class="edge"><title>6&#45;&gt;4</title>
<path fill="none" stroke="grey" stroke-width="2" d="M205.5,-359.697C205.5,-351.983 205.5,-342.712 205.5,-334.112"/>
<polygon fill="grey" stroke="grey" stroke-width="2" points="209,-334.104 205.5,-324.104 202,-334.104 209,-334.104"/>
</g>
<!-- 7&#45;&gt;0 -->
<g id="edge1" class="edge"><title>7&#45;&gt;0</title>
<path fill="none" stroke="grey" stroke-width="2" d="M138.619,-215.876C161.138,-206.264 189.418,-194.193 213.271,-184.013"/>
<polygon fill="grey" stroke="grey" stroke-width="2" points="214.688,-187.213 222.511,-180.068 211.94,-180.775 214.688,-187.213"/>
</g>
<!-- 7&#45;&gt;2 -->
<g id="edge3" class="edge"><title>7&#45;&gt;2</title>
<path fill="none" stroke="grey" stroke-width="2" d="M85.8933,-215.697C79.9026,-207.474 72.6235,-197.483 66.0208,-188.421"/>
<polygon fill="grey" stroke="grey" stroke-width="2" points="68.6792,-186.126 59.9617,-180.104 63.0215,-190.248 68.6792,-186.126"/>
</g>
<!-- 7&#45;&gt;8 -->
<g id="edge9" class="edge"><title>7&#45;&gt;8</title>
<path fill="none" stroke="grey" stroke-width="2" d="M104.201,-215.838C111.487,-196.211 125.812,-164.192 147.5,-144 167.844,-125.06 196.144,-111.9 219.58,-103.431"/>
<polygon fill="grey" stroke="grey" stroke-width="2" points="220.974,-106.653 229.288,-100.086 218.693,-100.035 220.974,-106.653"/>
</g>
<!-- 9 -->
<g id="node10" class="node"><title>9</title>
<path fill="none" stroke="#5692d8" stroke-width="2" d="M491.5,-180C491.5,-180 403.5,-180 403.5,-180 397.5,-180 391.5,-174 391.5,-168 391.5,-168 391.5,-156 391.5,-156 391.5,-150 397.5,-144 403.5,-144 403.5,-144 491.5,-144 491.5,-144 497.5,-144 503.5,-150 503.5,-156 503.5,-156 503.5,-168 503.5,-168 503.5,-174 497.5,-180 491.5,-180"/>
<text text-anchor="middle" x="447.5" y="-159.5" font-family="sans" font-size="10.00">overlapDellyLumpy</text>
</g>
<!-- 7&#45;&gt;9 -->
<g id="edge15" class="edge"><title>7&#45;&gt;9</title>
<path fill="none" stroke="grey" stroke-width="2" d="M159.291,-220.807C221.393,-208.351 317.526,-189.069 381.464,-176.245"/>
<polygon fill="grey" stroke="grey" stroke-width="2" points="382.323,-179.643 391.439,-174.244 380.946,-172.779 382.323,-179.643"/>
</g>
<!-- 8&#45;&gt;5 -->
<g id="edge6" class="edge"><title>8&#45;&gt;5</title>
<path fill="none" stroke="grey" stroke-width="2" d="M262.5,-71.6966C262.5,-63.9827 262.5,-54.7125 262.5,-46.1124"/>
<polygon fill="grey" stroke="grey" stroke-width="2" points="266,-46.1043 262.5,-36.1043 259,-46.1044 266,-46.1043"/>
</g>
<!-- 9&#45;&gt;8 -->
<g id="edge11" class="edge"><title>9&#45;&gt;8</title>
<path fill="none" stroke="grey" stroke-width="2" d="M402.244,-143.876C372.643,-132.676 334.219,-118.137 305.156,-107.14"/>
<polygon fill="grey" stroke="grey" stroke-width="2" points="306.276,-103.822 295.684,-103.556 303.799,-110.369 306.276,-103.822"/>
</g>
<!-- 10&#45;&gt;8 -->
<g id="edge12" class="edge"><title>10&#45;&gt;8</title>
<path fill="none" stroke="grey" stroke-width="2" d="M464.953,-287.784C494.723,-256.338 548.744,-188.734 512.5,-144 486.968,-112.488 370.401,-98.9542 305.846,-93.7916"/>
<polygon fill="grey" stroke="grey" stroke-width="2" points="305.811,-90.2788 295.573,-93.0056 305.276,-97.2584 305.811,-90.2788"/>
</g>
<!-- 10&#45;&gt;9 -->
<g id="edge16" class="edge"><title>10&#45;&gt;9</title>
<path fill="none" stroke="grey" stroke-width="2" d="M447.5,-287.871C447.5,-263.67 447.5,-219.211 447.5,-190.393"/>
<polygon fill="grey" stroke="grey" stroke-width="2" points="451,-190.189 447.5,-180.189 444,-190.189 451,-190.189"/>
</g>
<!-- 10&#45;&gt;11 -->
<g id="edge18" class="edge"><title>10&#45;&gt;11</title>
<path fill="none" stroke="grey" stroke-width="2" d="M417.9,-287.876C401.933,-278.639 382.04,-267.131 364.894,-257.212"/>
<polygon fill="grey" stroke="grey" stroke-width="2" points="366.622,-254.168 356.214,-252.19 363.117,-260.227 366.622,-254.168"/>
</g>
<!-- 11&#45;&gt;0 -->
<g id="edge2" class="edge"><title>11&#45;&gt;0</title>
<path fill="none" stroke="grey" stroke-width="2" d="M310.68,-215.697C302.93,-207.22 293.461,-196.864 284.976,-187.583"/>
<polygon fill="grey" stroke="grey" stroke-width="2" points="287.469,-185.123 278.138,-180.104 282.303,-189.846 287.469,-185.123"/>
</g>
<!-- 11&#45;&gt;8 -->
<g id="edge14" class="edge"><title>11&#45;&gt;8</title>
<path fill="none" stroke="grey" stroke-width="2" d="M336.421,-215.918C345.864,-197.214 356.936,-166.845 344.5,-144 335.828,-128.07 320.08,-116.197 304.686,-107.773"/>
<polygon fill="grey" stroke="grey" stroke-width="2" points="306.219,-104.626 295.72,-103.208 303.043,-110.864 306.219,-104.626"/>
</g>
</g>
</svg>
